<mxfile host="app.diagrams.net" modified="2021-07-01T23:16:10.518Z" agent="5.0 (Windows NT 10.0; Win64; x64) AppleWebKit/537.36 (KHTML, like Gecko) Chrome/91.0.4472.124 Safari/537.36" etag="vMp1p9aCjfFsDydwARMX" version="14.8.3" type="github">
  <diagram id="UTQQbYhlHvOHKYh8MkrT" name="Page-1">
    <mxGraphModel dx="2185" dy="692" grid="1" gridSize="10" guides="1" tooltips="1" connect="1" arrows="1" fold="1" page="1" pageScale="1" pageWidth="850" pageHeight="1100" math="0" shadow="0">
      <root>
        <mxCell id="0" />
        <mxCell id="1" parent="0" />
        <mxCell id="e6wRTPVyQTJDdW5Fm0Qz-31" value="" style="group;fontSize=18;" vertex="1" connectable="0" parent="1">
          <mxGeometry x="-840" y="250" width="410" height="430" as="geometry" />
        </mxCell>
        <mxCell id="e6wRTPVyQTJDdW5Fm0Qz-5" value="" style="rounded=0;whiteSpace=wrap;html=1;fontStyle=2;fontFamily=Times New Roman;strokeColor=#000000;fontSize=18;" vertex="1" parent="e6wRTPVyQTJDdW5Fm0Qz-31">
          <mxGeometry width="410" height="430" as="geometry" />
        </mxCell>
        <mxCell id="e6wRTPVyQTJDdW5Fm0Qz-6" value="BusinessContext" style="swimlane;fontStyle=0;childLayout=stackLayout;horizontal=1;startSize=26;fillColor=none;horizontalStack=0;resizeParent=1;resizeParentMax=0;resizeLast=0;collapsible=1;marginBottom=0;shadow=1;fontSize=18;" vertex="1" parent="e6wRTPVyQTJDdW5Fm0Qz-31">
          <mxGeometry x="30" y="80" width="160" height="104" as="geometry" />
        </mxCell>
        <mxCell id="e6wRTPVyQTJDdW5Fm0Qz-7" value="Course.CS&#xa;" style="text;strokeColor=none;fillColor=none;align=left;verticalAlign=top;spacingLeft=4;spacingRight=4;overflow=hidden;rotatable=0;points=[[0,0.5],[1,0.5]];portConstraint=eastwest;fontSize=18;" vertex="1" parent="e6wRTPVyQTJDdW5Fm0Qz-6">
          <mxGeometry y="26" width="160" height="26" as="geometry" />
        </mxCell>
        <mxCell id="e6wRTPVyQTJDdW5Fm0Qz-8" value=" " style="text;strokeColor=none;fillColor=none;align=left;verticalAlign=top;spacingLeft=4;spacingRight=4;overflow=hidden;rotatable=0;points=[[0,0.5],[1,0.5]];portConstraint=eastwest;fontSize=18;" vertex="1" parent="e6wRTPVyQTJDdW5Fm0Qz-6">
          <mxGeometry y="52" width="160" height="26" as="geometry" />
        </mxCell>
        <mxCell id="e6wRTPVyQTJDdW5Fm0Qz-9" value=" " style="text;strokeColor=none;fillColor=none;align=left;verticalAlign=top;spacingLeft=4;spacingRight=4;overflow=hidden;rotatable=0;points=[[0,0.5],[1,0.5]];portConstraint=eastwest;fontSize=18;" vertex="1" parent="e6wRTPVyQTJDdW5Fm0Qz-6">
          <mxGeometry y="78" width="160" height="26" as="geometry" />
        </mxCell>
        <mxCell id="e6wRTPVyQTJDdW5Fm0Qz-10" value="&lt;font style=&quot;font-size: 18px;&quot;&gt;WebAppMVC.Training&lt;/font&gt;" style="text;html=1;resizable=0;autosize=1;align=center;verticalAlign=middle;points=[];fillColor=none;strokeColor=none;rounded=0;shadow=1;fontFamily=Times New Roman;fontSize=18;" vertex="1" parent="e6wRTPVyQTJDdW5Fm0Qz-31">
          <mxGeometry x="120" y="25" width="190" height="30" as="geometry" />
        </mxCell>
        <mxCell id="e6wRTPVyQTJDdW5Fm0Qz-13" value="Service" style="swimlane;fontStyle=0;childLayout=stackLayout;horizontal=1;startSize=26;fillColor=none;horizontalStack=0;resizeParent=1;resizeParentMax=0;resizeLast=0;collapsible=1;marginBottom=0;shadow=1;fontSize=18;" vertex="1" parent="e6wRTPVyQTJDdW5Fm0Qz-31">
          <mxGeometry x="220" y="80" width="160" height="104" as="geometry" />
        </mxCell>
        <mxCell id="e6wRTPVyQTJDdW5Fm0Qz-14" value="CourseService.CS&#xa;" style="text;strokeColor=none;fillColor=none;align=left;verticalAlign=top;spacingLeft=4;spacingRight=4;overflow=hidden;rotatable=0;points=[[0,0.5],[1,0.5]];portConstraint=eastwest;fontSize=18;" vertex="1" parent="e6wRTPVyQTJDdW5Fm0Qz-13">
          <mxGeometry y="26" width="160" height="26" as="geometry" />
        </mxCell>
        <mxCell id="e6wRTPVyQTJDdW5Fm0Qz-15" value="IcourseService.CS    " style="text;strokeColor=none;fillColor=none;align=left;verticalAlign=top;spacingLeft=4;spacingRight=4;overflow=hidden;rotatable=0;points=[[0,0.5],[1,0.5]];portConstraint=eastwest;fontSize=18;" vertex="1" parent="e6wRTPVyQTJDdW5Fm0Qz-13">
          <mxGeometry y="52" width="160" height="26" as="geometry" />
        </mxCell>
        <mxCell id="e6wRTPVyQTJDdW5Fm0Qz-16" value=" " style="text;strokeColor=none;fillColor=none;align=left;verticalAlign=top;spacingLeft=4;spacingRight=4;overflow=hidden;rotatable=0;points=[[0,0.5],[1,0.5]];portConstraint=eastwest;fontSize=18;" vertex="1" parent="e6wRTPVyQTJDdW5Fm0Qz-13">
          <mxGeometry y="78" width="160" height="26" as="geometry" />
        </mxCell>
        <mxCell id="e6wRTPVyQTJDdW5Fm0Qz-17" value="Entities" style="swimlane;fontStyle=0;childLayout=stackLayout;horizontal=1;startSize=26;fillColor=none;horizontalStack=0;resizeParent=1;resizeParentMax=0;resizeLast=0;collapsible=1;marginBottom=0;shadow=1;fontSize=18;" vertex="1" parent="e6wRTPVyQTJDdW5Fm0Qz-31">
          <mxGeometry x="30" y="220" width="160" height="104" as="geometry" />
        </mxCell>
        <mxCell id="e6wRTPVyQTJDdW5Fm0Qz-18" value="Course.CS&#xa;" style="text;strokeColor=none;fillColor=none;align=left;verticalAlign=top;spacingLeft=4;spacingRight=4;overflow=hidden;rotatable=0;points=[[0,0.5],[1,0.5]];portConstraint=eastwest;fontSize=18;" vertex="1" parent="e6wRTPVyQTJDdW5Fm0Qz-17">
          <mxGeometry y="26" width="160" height="26" as="geometry" />
        </mxCell>
        <mxCell id="e6wRTPVyQTJDdW5Fm0Qz-19" value="Student.CS" style="text;strokeColor=none;fillColor=none;align=left;verticalAlign=top;spacingLeft=4;spacingRight=4;overflow=hidden;rotatable=0;points=[[0,0.5],[1,0.5]];portConstraint=eastwest;fontSize=18;" vertex="1" parent="e6wRTPVyQTJDdW5Fm0Qz-17">
          <mxGeometry y="52" width="160" height="26" as="geometry" />
        </mxCell>
        <mxCell id="e6wRTPVyQTJDdW5Fm0Qz-20" value="Topic.CS" style="text;strokeColor=none;fillColor=none;align=left;verticalAlign=top;spacingLeft=4;spacingRight=4;overflow=hidden;rotatable=0;points=[[0,0.5],[1,0.5]];portConstraint=eastwest;fontSize=18;" vertex="1" parent="e6wRTPVyQTJDdW5Fm0Qz-17">
          <mxGeometry y="78" width="160" height="26" as="geometry" />
        </mxCell>
        <mxCell id="e6wRTPVyQTJDdW5Fm0Qz-21" value="Context" style="swimlane;fontStyle=0;childLayout=stackLayout;horizontal=1;startSize=26;fillColor=none;horizontalStack=0;resizeParent=1;resizeParentMax=0;resizeLast=0;collapsible=1;marginBottom=0;shadow=1;fontSize=18;" vertex="1" parent="e6wRTPVyQTJDdW5Fm0Qz-31">
          <mxGeometry x="210" y="220" width="170" height="104" as="geometry" />
        </mxCell>
        <mxCell id="e6wRTPVyQTJDdW5Fm0Qz-22" value="TrainingContext.CS&#xa;" style="text;strokeColor=none;fillColor=none;align=left;verticalAlign=top;spacingLeft=4;spacingRight=4;overflow=hidden;rotatable=0;points=[[0,0.5],[1,0.5]];portConstraint=eastwest;fontSize=18;" vertex="1" parent="e6wRTPVyQTJDdW5Fm0Qz-21">
          <mxGeometry y="26" width="170" height="26" as="geometry" />
        </mxCell>
        <mxCell id="e6wRTPVyQTJDdW5Fm0Qz-23" value=" " style="text;strokeColor=none;fillColor=none;align=left;verticalAlign=top;spacingLeft=4;spacingRight=4;overflow=hidden;rotatable=0;points=[[0,0.5],[1,0.5]];portConstraint=eastwest;fontSize=18;" vertex="1" parent="e6wRTPVyQTJDdW5Fm0Qz-21">
          <mxGeometry y="52" width="170" height="26" as="geometry" />
        </mxCell>
        <mxCell id="e6wRTPVyQTJDdW5Fm0Qz-24" value=" " style="text;strokeColor=none;fillColor=none;align=left;verticalAlign=top;spacingLeft=4;spacingRight=4;overflow=hidden;rotatable=0;points=[[0,0.5],[1,0.5]];portConstraint=eastwest;fontSize=18;" vertex="1" parent="e6wRTPVyQTJDdW5Fm0Qz-21">
          <mxGeometry y="78" width="170" height="26" as="geometry" />
        </mxCell>
        <mxCell id="e6wRTPVyQTJDdW5Fm0Qz-29" value="" style="rounded=0;whiteSpace=wrap;html=1;shadow=1;fontFamily=Times New Roman;strokeColor=#000000;fontSize=18;" vertex="1" parent="e6wRTPVyQTJDdW5Fm0Qz-31">
          <mxGeometry x="100" y="360" width="200" height="60" as="geometry" />
        </mxCell>
        <mxCell id="e6wRTPVyQTJDdW5Fm0Qz-30" value="&lt;span style=&quot;font-family: helvetica; font-size: 18px;&quot;&gt;TrainingModule.CS&lt;/span&gt;" style="text;html=1;resizable=0;autosize=1;align=center;verticalAlign=middle;points=[];fillColor=none;strokeColor=none;rounded=0;shadow=1;fontFamily=Times New Roman;fontSize=18;" vertex="1" parent="e6wRTPVyQTJDdW5Fm0Qz-31">
          <mxGeometry x="105" y="375" width="170" height="30" as="geometry" />
        </mxCell>
        <mxCell id="e6wRTPVyQTJDdW5Fm0Qz-50" style="edgeStyle=orthogonalEdgeStyle;rounded=0;orthogonalLoop=1;jettySize=auto;html=1;entryX=0;entryY=0.5;entryDx=0;entryDy=0;fontFamily=Times New Roman;fontSize=18;" edge="1" parent="e6wRTPVyQTJDdW5Fm0Qz-31" source="e6wRTPVyQTJDdW5Fm0Qz-14" target="e6wRTPVyQTJDdW5Fm0Qz-7">
          <mxGeometry relative="1" as="geometry">
            <Array as="points">
              <mxPoint x="460" y="119" />
              <mxPoint x="460" y="-50" />
              <mxPoint x="10" y="-50" />
              <mxPoint x="10" y="119" />
            </Array>
          </mxGeometry>
        </mxCell>
        <mxCell id="e6wRTPVyQTJDdW5Fm0Qz-53" value="2" style="edgeLabel;html=1;align=center;verticalAlign=middle;resizable=0;points=[];fontSize=30;fontFamily=Times New Roman;" vertex="1" connectable="0" parent="e6wRTPVyQTJDdW5Fm0Qz-50">
          <mxGeometry x="0.2792" y="-1" relative="1" as="geometry">
            <mxPoint as="offset" />
          </mxGeometry>
        </mxCell>
        <mxCell id="e6wRTPVyQTJDdW5Fm0Qz-48" value="" style="group" vertex="1" connectable="0" parent="1">
          <mxGeometry x="-310" y="150" width="400" height="430" as="geometry" />
        </mxCell>
        <mxCell id="e6wRTPVyQTJDdW5Fm0Qz-33" value="" style="rounded=0;whiteSpace=wrap;html=1;fontStyle=2;fontFamily=Times New Roman;strokeColor=#000000;fontSize=18;" vertex="1" parent="e6wRTPVyQTJDdW5Fm0Qz-48">
          <mxGeometry width="400" height="430" as="geometry" />
        </mxCell>
        <mxCell id="e6wRTPVyQTJDdW5Fm0Qz-34" value="Controller" style="swimlane;fontStyle=0;childLayout=stackLayout;horizontal=1;startSize=26;fillColor=none;horizontalStack=0;resizeParent=1;resizeParentMax=0;resizeLast=0;collapsible=1;marginBottom=0;shadow=1;fontSize=18;" vertex="1" parent="e6wRTPVyQTJDdW5Fm0Qz-48">
          <mxGeometry x="10" y="50" width="160" height="104" as="geometry" />
        </mxCell>
        <mxCell id="e6wRTPVyQTJDdW5Fm0Qz-35" value="CourseController" style="text;strokeColor=none;fillColor=none;align=left;verticalAlign=top;spacingLeft=4;spacingRight=4;overflow=hidden;rotatable=0;points=[[0,0.5],[1,0.5]];portConstraint=eastwest;fontSize=18;" vertex="1" parent="e6wRTPVyQTJDdW5Fm0Qz-34">
          <mxGeometry y="26" width="160" height="26" as="geometry" />
        </mxCell>
        <mxCell id="e6wRTPVyQTJDdW5Fm0Qz-36" value=" " style="text;strokeColor=none;fillColor=none;align=left;verticalAlign=top;spacingLeft=4;spacingRight=4;overflow=hidden;rotatable=0;points=[[0,0.5],[1,0.5]];portConstraint=eastwest;fontSize=18;" vertex="1" parent="e6wRTPVyQTJDdW5Fm0Qz-34">
          <mxGeometry y="52" width="160" height="26" as="geometry" />
        </mxCell>
        <mxCell id="e6wRTPVyQTJDdW5Fm0Qz-37" value=" " style="text;strokeColor=none;fillColor=none;align=left;verticalAlign=top;spacingLeft=4;spacingRight=4;overflow=hidden;rotatable=0;points=[[0,0.5],[1,0.5]];portConstraint=eastwest;fontSize=18;" vertex="1" parent="e6wRTPVyQTJDdW5Fm0Qz-34">
          <mxGeometry y="78" width="160" height="26" as="geometry" />
        </mxCell>
        <mxCell id="e6wRTPVyQTJDdW5Fm0Qz-38" value="&lt;font style=&quot;font-size: 18px;&quot;&gt;WebAppMVC.Web&lt;/font&gt;" style="text;html=1;resizable=0;autosize=1;align=center;verticalAlign=middle;points=[];fillColor=none;strokeColor=none;rounded=0;shadow=1;fontFamily=Times New Roman;fontSize=18;" vertex="1" parent="e6wRTPVyQTJDdW5Fm0Qz-48">
          <mxGeometry x="80" y="5" width="160" height="30" as="geometry" />
        </mxCell>
        <mxCell id="e6wRTPVyQTJDdW5Fm0Qz-39" value="Models" style="swimlane;fontStyle=0;childLayout=stackLayout;horizontal=1;startSize=26;fillColor=none;horizontalStack=0;resizeParent=1;resizeParentMax=0;resizeLast=0;collapsible=1;marginBottom=0;shadow=1;fontSize=18;" vertex="1" parent="e6wRTPVyQTJDdW5Fm0Qz-48">
          <mxGeometry x="200" y="50" width="180" height="104" as="geometry" />
        </mxCell>
        <mxCell id="e6wRTPVyQTJDdW5Fm0Qz-40" value="CourseListModel.CS" style="text;strokeColor=none;fillColor=none;align=left;verticalAlign=top;spacingLeft=4;spacingRight=4;overflow=hidden;rotatable=0;points=[[0,0.5],[1,0.5]];portConstraint=eastwest;fontSize=18;" vertex="1" parent="e6wRTPVyQTJDdW5Fm0Qz-39">
          <mxGeometry y="26" width="180" height="26" as="geometry" />
        </mxCell>
        <mxCell id="e6wRTPVyQTJDdW5Fm0Qz-41" value=" " style="text;strokeColor=none;fillColor=none;align=left;verticalAlign=top;spacingLeft=4;spacingRight=4;overflow=hidden;rotatable=0;points=[[0,0.5],[1,0.5]];portConstraint=eastwest;fontSize=18;" vertex="1" parent="e6wRTPVyQTJDdW5Fm0Qz-39">
          <mxGeometry y="52" width="180" height="26" as="geometry" />
        </mxCell>
        <mxCell id="e6wRTPVyQTJDdW5Fm0Qz-42" value=" " style="text;strokeColor=none;fillColor=none;align=left;verticalAlign=top;spacingLeft=4;spacingRight=4;overflow=hidden;rotatable=0;points=[[0,0.5],[1,0.5]];portConstraint=eastwest;fontSize=18;" vertex="1" parent="e6wRTPVyQTJDdW5Fm0Qz-39">
          <mxGeometry y="78" width="180" height="26" as="geometry" />
        </mxCell>
        <mxCell id="e6wRTPVyQTJDdW5Fm0Qz-44" value="View    " style="swimlane;fontStyle=0;childLayout=stackLayout;horizontal=1;startSize=26;fillColor=none;horizontalStack=0;resizeParent=1;resizeParentMax=0;resizeLast=0;collapsible=1;marginBottom=0;shadow=1;fontSize=18;" vertex="1" parent="e6wRTPVyQTJDdW5Fm0Qz-48">
          <mxGeometry x="20" y="180" width="160" height="152" as="geometry" />
        </mxCell>
        <mxCell id="e6wRTPVyQTJDdW5Fm0Qz-45" value="Course&#xa;Index.html&#xa;" style="text;strokeColor=none;fillColor=none;align=left;verticalAlign=top;spacingLeft=4;spacingRight=4;overflow=hidden;rotatable=0;points=[[0,0.5],[1,0.5]];portConstraint=eastwest;fontSize=18;" vertex="1" parent="e6wRTPVyQTJDdW5Fm0Qz-44">
          <mxGeometry y="26" width="160" height="74" as="geometry" />
        </mxCell>
        <mxCell id="e6wRTPVyQTJDdW5Fm0Qz-46" value=" " style="text;strokeColor=none;fillColor=none;align=left;verticalAlign=top;spacingLeft=4;spacingRight=4;overflow=hidden;rotatable=0;points=[[0,0.5],[1,0.5]];portConstraint=eastwest;fontSize=18;" vertex="1" parent="e6wRTPVyQTJDdW5Fm0Qz-44">
          <mxGeometry y="100" width="160" height="26" as="geometry" />
        </mxCell>
        <mxCell id="e6wRTPVyQTJDdW5Fm0Qz-47" value=" " style="text;strokeColor=none;fillColor=none;align=left;verticalAlign=top;spacingLeft=4;spacingRight=4;overflow=hidden;rotatable=0;points=[[0,0.5],[1,0.5]];portConstraint=eastwest;fontSize=18;" vertex="1" parent="e6wRTPVyQTJDdW5Fm0Qz-44">
          <mxGeometry y="126" width="160" height="26" as="geometry" />
        </mxCell>
        <mxCell id="e6wRTPVyQTJDdW5Fm0Qz-54" style="edgeStyle=orthogonalEdgeStyle;rounded=0;orthogonalLoop=1;jettySize=auto;html=1;entryX=0;entryY=0.5;entryDx=0;entryDy=0;fontFamily=Times New Roman;fontSize=30;" edge="1" parent="e6wRTPVyQTJDdW5Fm0Qz-48" source="e6wRTPVyQTJDdW5Fm0Qz-35" target="e6wRTPVyQTJDdW5Fm0Qz-40">
          <mxGeometry relative="1" as="geometry" />
        </mxCell>
        <mxCell id="e6wRTPVyQTJDdW5Fm0Qz-55" value="1" style="edgeLabel;html=1;align=center;verticalAlign=middle;resizable=0;points=[];fontSize=30;fontFamily=Times New Roman;" vertex="1" connectable="0" parent="e6wRTPVyQTJDdW5Fm0Qz-54">
          <mxGeometry x="0.2777" y="5" relative="1" as="geometry">
            <mxPoint y="-24" as="offset" />
          </mxGeometry>
        </mxCell>
        <mxCell id="e6wRTPVyQTJDdW5Fm0Qz-49" style="edgeStyle=orthogonalEdgeStyle;rounded=0;orthogonalLoop=1;jettySize=auto;html=1;entryX=1;entryY=0;entryDx=0;entryDy=0;fontFamily=Times New Roman;fontSize=18;" edge="1" parent="1" source="e6wRTPVyQTJDdW5Fm0Qz-39" target="e6wRTPVyQTJDdW5Fm0Qz-13">
          <mxGeometry relative="1" as="geometry">
            <Array as="points">
              <mxPoint x="60" y="100" />
              <mxPoint x="-460" y="100" />
            </Array>
          </mxGeometry>
        </mxCell>
        <mxCell id="e6wRTPVyQTJDdW5Fm0Qz-51" value="1" style="edgeLabel;html=1;align=center;verticalAlign=middle;resizable=0;points=[];fontSize=30;fontFamily=Times New Roman;" vertex="1" connectable="0" parent="e6wRTPVyQTJDdW5Fm0Qz-49">
          <mxGeometry x="0.0219" y="-3" relative="1" as="geometry">
            <mxPoint as="offset" />
          </mxGeometry>
        </mxCell>
        <mxCell id="e6wRTPVyQTJDdW5Fm0Qz-57" style="edgeStyle=orthogonalEdgeStyle;rounded=0;orthogonalLoop=1;jettySize=auto;html=1;entryX=0;entryY=0;entryDx=0;entryDy=0;fontFamily=Times New Roman;fontSize=30;fontColor=#CC0000;" edge="1" parent="1" source="e6wRTPVyQTJDdW5Fm0Qz-39" target="e6wRTPVyQTJDdW5Fm0Qz-6">
          <mxGeometry relative="1" as="geometry">
            <Array as="points">
              <mxPoint x="-20" y="130" />
              <mxPoint x="-810" y="130" />
            </Array>
          </mxGeometry>
        </mxCell>
      </root>
    </mxGraphModel>
  </diagram>
</mxfile>
